<mxfile host="Electron" agent="Mozilla/5.0 (Windows NT 10.0; Win64; x64) AppleWebKit/537.36 (KHTML, like Gecko) draw.io/27.0.9 Chrome/134.0.6998.205 Electron/35.4.0 Safari/537.36" version="27.0.9">
  <diagram name="Page-1" id="-NYJxw9Xc8-3shOvOKRy">
    <mxGraphModel dx="868" dy="528" grid="1" gridSize="10" guides="1" tooltips="1" connect="1" arrows="1" fold="1" page="1" pageScale="1" pageWidth="1920" pageHeight="1200" math="0" shadow="0">
      <root>
        <mxCell id="0" />
        <mxCell id="1" parent="0" />
        <mxCell id="6yL_E_3D9y7odJ5T6iub-1" value="IPicture" style="swimlane;fontStyle=0;childLayout=stackLayout;horizontal=1;startSize=30;horizontalStack=0;resizeParent=1;resizeParentMax=0;resizeLast=0;collapsible=1;marginBottom=0;whiteSpace=wrap;html=1;" vertex="1" parent="1">
          <mxGeometry x="470" y="140" width="140" height="50" as="geometry" />
        </mxCell>
        <mxCell id="6yL_E_3D9y7odJ5T6iub-19" style="edgeStyle=orthogonalEdgeStyle;rounded=0;orthogonalLoop=1;jettySize=auto;html=1;exitX=0.5;exitY=0;exitDx=0;exitDy=0;entryX=0;entryY=0.25;entryDx=0;entryDy=0;" edge="1" parent="1" source="6yL_E_3D9y7odJ5T6iub-6" target="6yL_E_3D9y7odJ5T6iub-1">
          <mxGeometry relative="1" as="geometry" />
        </mxCell>
        <mxCell id="6yL_E_3D9y7odJ5T6iub-6" value="Shape" style="swimlane;fontStyle=0;childLayout=stackLayout;horizontal=1;startSize=30;horizontalStack=0;resizeParent=1;resizeParentMax=0;resizeLast=0;collapsible=1;marginBottom=0;whiteSpace=wrap;html=1;" vertex="1" parent="1">
          <mxGeometry x="300" y="300" width="140" height="90" as="geometry" />
        </mxCell>
        <mxCell id="6yL_E_3D9y7odJ5T6iub-7" value="String&amp;nbsp;kind" style="text;strokeColor=none;fillColor=none;align=left;verticalAlign=middle;spacingLeft=4;spacingRight=4;overflow=hidden;points=[[0,0.5],[1,0.5]];portConstraint=eastwest;rotatable=0;whiteSpace=wrap;html=1;" vertex="1" parent="6yL_E_3D9y7odJ5T6iub-6">
          <mxGeometry y="30" width="140" height="30" as="geometry" />
        </mxCell>
        <mxCell id="6yL_E_3D9y7odJ5T6iub-8" value="int size" style="text;strokeColor=none;fillColor=none;align=left;verticalAlign=middle;spacingLeft=4;spacingRight=4;overflow=hidden;points=[[0,0.5],[1,0.5]];portConstraint=eastwest;rotatable=0;whiteSpace=wrap;html=1;" vertex="1" parent="6yL_E_3D9y7odJ5T6iub-6">
          <mxGeometry y="60" width="140" height="30" as="geometry" />
        </mxCell>
        <mxCell id="6yL_E_3D9y7odJ5T6iub-20" style="edgeStyle=orthogonalEdgeStyle;rounded=0;orthogonalLoop=1;jettySize=auto;html=1;exitX=0.5;exitY=0;exitDx=0;exitDy=0;entryX=1;entryY=0.25;entryDx=0;entryDy=0;" edge="1" parent="1" source="6yL_E_3D9y7odJ5T6iub-10" target="6yL_E_3D9y7odJ5T6iub-1">
          <mxGeometry relative="1" as="geometry" />
        </mxCell>
        <mxCell id="6yL_E_3D9y7odJ5T6iub-10" value="Combo" style="swimlane;fontStyle=0;childLayout=stackLayout;horizontal=1;startSize=30;horizontalStack=0;resizeParent=1;resizeParentMax=0;resizeLast=0;collapsible=1;marginBottom=0;whiteSpace=wrap;html=1;" vertex="1" parent="1">
          <mxGeometry x="620" y="300" width="140" height="120" as="geometry" />
        </mxCell>
        <mxCell id="6yL_E_3D9y7odJ5T6iub-23" value="&amp;nbsp;pictures" style="text;html=1;align=left;verticalAlign=middle;whiteSpace=wrap;rounded=0;" vertex="1" parent="6yL_E_3D9y7odJ5T6iub-10">
          <mxGeometry y="30" width="140" height="30" as="geometry" />
        </mxCell>
        <mxCell id="6yL_E_3D9y7odJ5T6iub-11" value="String name" style="text;strokeColor=none;fillColor=none;align=left;verticalAlign=middle;spacingLeft=4;spacingRight=4;overflow=hidden;points=[[0,0.5],[1,0.5]];portConstraint=eastwest;rotatable=0;whiteSpace=wrap;html=1;" vertex="1" parent="6yL_E_3D9y7odJ5T6iub-10">
          <mxGeometry y="60" width="140" height="30" as="geometry" />
        </mxCell>
        <mxCell id="6yL_E_3D9y7odJ5T6iub-12" value="String&amp;nbsp;operation" style="text;strokeColor=none;fillColor=none;align=left;verticalAlign=middle;spacingLeft=4;spacingRight=4;overflow=hidden;points=[[0,0.5],[1,0.5]];portConstraint=eastwest;rotatable=0;whiteSpace=wrap;html=1;" vertex="1" parent="6yL_E_3D9y7odJ5T6iub-10">
          <mxGeometry y="90" width="140" height="30" as="geometry" />
        </mxCell>
        <mxCell id="6yL_E_3D9y7odJ5T6iub-15" value="&lt;span style=&quot;font-family: Charter-Racket, serif; font-size: 17.7px; text-align: left; text-wrap-mode: wrap; background-color: rgb(255, 255, 255);&quot;&gt;(e.g.,&amp;nbsp;&lt;/span&gt;&lt;span style=&quot;margin: 0px; padding: 0px; font-family: Fira-Mono, monospace; white-space-collapse: preserve; text-align: left; font-size: 1rem; line-height: 1.5; background-color: rgb(255, 255, 255);&quot; class=&quot;RktBlk&quot;&gt;&lt;span style=&quot;margin: 0px; padding: 0px;&quot; class=&quot;JavaHighlight&quot;&gt;&lt;span style=&quot;margin: 0px; padding: 0px; white-space: inherit; font-size: 1rem; line-height: 1.5;&quot; class=&quot;RktMeta&quot;&gt;&lt;/span&gt;&lt;span style=&quot;margin: 0px; padding: 0px; color: rgb(0, 0, 255);&quot; class=&quot;ProfjString&quot;&gt;&quot;circle&quot;&lt;/span&gt;&lt;span style=&quot;margin: 0px; padding: 0px; white-space: inherit; font-size: 1rem; line-height: 1.5;&quot; class=&quot;RktMeta&quot;&gt;&lt;/span&gt;&lt;/span&gt;&lt;/span&gt;&lt;span style=&quot;font-family: Charter-Racket, serif; font-size: 17.7px; text-align: left; text-wrap-mode: wrap; background-color: rgb(255, 255, 255);&quot;&gt;&amp;nbsp;or&amp;nbsp;&lt;/span&gt;&lt;span style=&quot;margin: 0px; padding: 0px; font-family: Fira-Mono, monospace; white-space-collapse: preserve; text-align: left; font-size: 1rem; line-height: 1.5; background-color: rgb(255, 255, 255);&quot; class=&quot;RktBlk&quot;&gt;&lt;span style=&quot;margin: 0px; padding: 0px;&quot; class=&quot;JavaHighlight&quot;&gt;&lt;span style=&quot;margin: 0px; padding: 0px; white-space: inherit; font-size: 1rem; line-height: 1.5;&quot; class=&quot;RktMeta&quot;&gt;&lt;/span&gt;&lt;span style=&quot;margin: 0px; padding: 0px; color: rgb(0, 0, 255);&quot; class=&quot;ProfjString&quot;&gt;&quot;square&quot;&lt;/span&gt;&lt;span style=&quot;margin: 0px; padding: 0px; white-space: inherit; font-size: 1rem; line-height: 1.5;&quot; class=&quot;RktMeta&quot;&gt;&lt;/span&gt;&lt;/span&gt;&lt;/span&gt;&lt;span style=&quot;font-family: Charter-Racket, serif; font-size: 17.7px; text-align: left; text-wrap-mode: wrap; background-color: rgb(255, 255, 255);&quot;&gt;)&lt;/span&gt;" style="text;html=1;align=center;verticalAlign=middle;resizable=0;points=[];autosize=1;strokeColor=none;fillColor=none;" vertex="1" parent="1">
          <mxGeometry x="70" y="323" width="230" height="40" as="geometry" />
        </mxCell>
        <mxCell id="6yL_E_3D9y7odJ5T6iub-17" style="edgeStyle=orthogonalEdgeStyle;rounded=0;orthogonalLoop=1;jettySize=auto;html=1;entryX=0;entryY=0.5;entryDx=0;entryDy=0;" edge="1" parent="1" source="6yL_E_3D9y7odJ5T6iub-16" target="6yL_E_3D9y7odJ5T6iub-12">
          <mxGeometry relative="1" as="geometry" />
        </mxCell>
        <mxCell id="6yL_E_3D9y7odJ5T6iub-16" value="&lt;font style=&quot;font-size: 11px;&quot;&gt;&lt;span style=&quot;font-family: Charter-Racket, serif; text-align: left; background-color: rgb(255, 255, 255);&quot;&gt;There are three kinds of operations:&amp;nbsp;&lt;/span&gt;&lt;span style=&quot;margin: 0px; padding: 0px; font-family: Fira-Mono, monospace; white-space: pre; text-align: left; line-height: 1.5; background-color: rgb(255, 255, 255);&quot; class=&quot;RktBlk&quot;&gt;&lt;span style=&quot;margin: 0px; padding: 0px;&quot; class=&quot;JavaHighlight&quot;&gt;&lt;span style=&quot;margin: 0px; padding: 0px; white-space: inherit; line-height: 1.5;&quot; class=&quot;RktMeta&quot;&gt;&lt;/span&gt;&lt;span style=&quot;margin: 0px; padding: 0px; color: rgb(119, 0, 68);&quot; class=&quot;ProfjType&quot;&gt;Scale&lt;/span&gt;&lt;span style=&quot;margin: 0px; padding: 0px; white-space: inherit; line-height: 1.5;&quot; class=&quot;RktMeta&quot;&gt;&lt;/span&gt;&lt;/span&gt;&lt;/span&gt;&lt;span style=&quot;font-family: Charter-Racket, serif; text-align: left; background-color: rgb(255, 255, 255);&quot;&gt;&amp;nbsp;(takes a single&amp;nbsp;&lt;/span&gt;&lt;span style=&quot;margin: 0px; padding: 0px; font-style: italic; font-family: Charter-Racket, serif; text-align: left; background-color: rgb(255, 255, 255);&quot; class=&quot;emph&quot;&gt;&lt;span style=&quot;margin: 0px; padding: 0px; font-family: Fira-Mono, monospace; white-space: inherit;&quot; class=&quot;stt&quot;&gt;picture&lt;/span&gt;&lt;/span&gt;&lt;span style=&quot;font-family: Charter-Racket, serif; text-align: left; background-color: rgb(255, 255, 255);&quot;&gt;&amp;nbsp;and draws it twice as large),&amp;nbsp;&lt;/span&gt;&lt;span style=&quot;margin: 0px; padding: 0px; font-family: Fira-Mono, monospace; white-space: pre; text-align: left; line-height: 1.5; background-color: rgb(255, 255, 255);&quot; class=&quot;RktBlk&quot;&gt;&lt;span style=&quot;margin: 0px; padding: 0px;&quot; class=&quot;JavaHighlight&quot;&gt;&lt;span style=&quot;margin: 0px; padding: 0px; white-space: inherit; line-height: 1.5;&quot; class=&quot;RktMeta&quot;&gt;&lt;/span&gt;&lt;span style=&quot;margin: 0px; padding: 0px; color: rgb(119, 0, 68);&quot; class=&quot;ProfjType&quot;&gt;Beside&lt;/span&gt;&lt;span style=&quot;margin: 0px; padding: 0px; white-space: inherit; line-height: 1.5;&quot; class=&quot;RktMeta&quot;&gt;&lt;/span&gt;&lt;/span&gt;&lt;/span&gt;&lt;span style=&quot;font-family: Charter-Racket, serif; text-align: left; background-color: rgb(255, 255, 255);&quot;&gt;&amp;nbsp;(takes two pictures, and draws&amp;nbsp;&lt;/span&gt;&lt;span style=&quot;margin: 0px; padding: 0px; font-style: italic; font-family: Charter-Racket, serif; text-align: left; background-color: rgb(255, 255, 255);&quot; class=&quot;emph&quot;&gt;&lt;span style=&quot;margin: 0px; padding: 0px; font-family: Fira-Mono, monospace; white-space: inherit;&quot; class=&quot;stt&quot;&gt;picture1&lt;/span&gt;&lt;/span&gt;&lt;span style=&quot;font-family: Charter-Racket, serif; text-align: left; background-color: rgb(255, 255, 255);&quot;&gt;&amp;nbsp;to the left of&amp;nbsp;&lt;/span&gt;&lt;span style=&quot;margin: 0px; padding: 0px; font-style: italic; font-family: Charter-Racket, serif; text-align: left; background-color: rgb(255, 255, 255);&quot; class=&quot;emph&quot;&gt;&lt;span style=&quot;margin: 0px; padding: 0px; font-family: Fira-Mono, monospace; white-space: inherit;&quot; class=&quot;stt&quot;&gt;picture2&lt;/span&gt;&lt;/span&gt;&lt;span style=&quot;font-family: Charter-Racket, serif; text-align: left; background-color: rgb(255, 255, 255);&quot;&gt;), and&amp;nbsp;&lt;/span&gt;&lt;span style=&quot;margin: 0px; padding: 0px; font-family: Fira-Mono, monospace; white-space: pre; text-align: left; line-height: 1.5; background-color: rgb(255, 255, 255);&quot; class=&quot;RktBlk&quot;&gt;&lt;span style=&quot;margin: 0px; padding: 0px;&quot; class=&quot;JavaHighlight&quot;&gt;&lt;span style=&quot;margin: 0px; padding: 0px; white-space: inherit; line-height: 1.5;&quot; class=&quot;RktMeta&quot;&gt;&lt;/span&gt;&lt;span style=&quot;margin: 0px; padding: 0px; color: rgb(119, 0, 68);&quot; class=&quot;ProfjType&quot;&gt;Overlay&lt;/span&gt;&lt;span style=&quot;margin: 0px; padding: 0px; white-space: inherit; line-height: 1.5;&quot; class=&quot;RktMeta&quot;&gt;&lt;/span&gt;&lt;/span&gt;&lt;/span&gt;&lt;span style=&quot;font-family: Charter-Racket, serif; text-align: left; background-color: rgb(255, 255, 255);&quot;&gt;&amp;nbsp;(takes two pictures, and draws&amp;nbsp;&lt;/span&gt;&lt;span style=&quot;margin: 0px; padding: 0px; font-style: italic; font-family: Charter-Racket, serif; text-align: left; background-color: rgb(255, 255, 255);&quot; class=&quot;emph&quot;&gt;&lt;span style=&quot;margin: 0px; padding: 0px; font-family: Fira-Mono, monospace; white-space: inherit;&quot; class=&quot;stt&quot;&gt;top-picture&lt;/span&gt;&lt;/span&gt;&lt;span style=&quot;font-family: Charter-Racket, serif; text-align: left; background-color: rgb(255, 255, 255);&quot;&gt;&amp;nbsp;on top of&amp;nbsp;&lt;/span&gt;&lt;span style=&quot;margin: 0px; padding: 0px; font-style: italic; font-family: Charter-Racket, serif; text-align: left; background-color: rgb(255, 255, 255);&quot; class=&quot;emph&quot;&gt;&lt;span style=&quot;margin: 0px; padding: 0px; font-family: Fira-Mono, monospace; white-space: inherit;&quot; class=&quot;stt&quot;&gt;bottom-picture&lt;/span&gt;&lt;/span&gt;&lt;span style=&quot;font-family: Charter-Racket, serif; text-align: left; background-color: rgb(255, 255, 255);&quot;&gt;, with their centers aligned).&lt;/span&gt;&lt;/font&gt;" style="rounded=1;whiteSpace=wrap;html=1;" vertex="1" parent="1">
          <mxGeometry x="250" y="590" width="500" height="60" as="geometry" />
        </mxCell>
        <mxCell id="6yL_E_3D9y7odJ5T6iub-25" value="ILoPictures" style="swimlane;fontStyle=0;childLayout=stackLayout;horizontal=1;startSize=30;horizontalStack=0;resizeParent=1;resizeParentMax=0;resizeLast=0;collapsible=1;marginBottom=0;whiteSpace=wrap;html=1;" vertex="1" parent="1">
          <mxGeometry x="1270" y="130" width="140" height="40" as="geometry" />
        </mxCell>
        <mxCell id="6yL_E_3D9y7odJ5T6iub-37" style="edgeStyle=orthogonalEdgeStyle;rounded=0;orthogonalLoop=1;jettySize=auto;html=1;entryX=0;entryY=0.25;entryDx=0;entryDy=0;" edge="1" parent="1" source="6yL_E_3D9y7odJ5T6iub-29" target="6yL_E_3D9y7odJ5T6iub-25">
          <mxGeometry relative="1" as="geometry" />
        </mxCell>
        <mxCell id="6yL_E_3D9y7odJ5T6iub-29" value="MtLoPictures" style="swimlane;fontStyle=0;childLayout=stackLayout;horizontal=1;startSize=30;horizontalStack=0;resizeParent=1;resizeParentMax=0;resizeLast=0;collapsible=1;marginBottom=0;whiteSpace=wrap;html=1;" vertex="1" parent="1">
          <mxGeometry x="1160" y="190" width="140" height="50" as="geometry" />
        </mxCell>
        <mxCell id="6yL_E_3D9y7odJ5T6iub-38" style="edgeStyle=orthogonalEdgeStyle;rounded=0;orthogonalLoop=1;jettySize=auto;html=1;exitX=0.5;exitY=0;exitDx=0;exitDy=0;entryX=1;entryY=0.25;entryDx=0;entryDy=0;" edge="1" parent="1" source="6yL_E_3D9y7odJ5T6iub-33" target="6yL_E_3D9y7odJ5T6iub-25">
          <mxGeometry relative="1" as="geometry" />
        </mxCell>
        <mxCell id="6yL_E_3D9y7odJ5T6iub-33" value="ConsLoPictures" style="swimlane;fontStyle=0;childLayout=stackLayout;horizontal=1;startSize=30;horizontalStack=0;resizeParent=1;resizeParentMax=0;resizeLast=0;collapsible=1;marginBottom=0;whiteSpace=wrap;html=1;" vertex="1" parent="1">
          <mxGeometry x="1410" y="250" width="140" height="90" as="geometry" />
        </mxCell>
        <mxCell id="6yL_E_3D9y7odJ5T6iub-34" value="first" style="text;strokeColor=none;fillColor=none;align=left;verticalAlign=middle;spacingLeft=4;spacingRight=4;overflow=hidden;points=[[0,0.5],[1,0.5]];portConstraint=eastwest;rotatable=0;whiteSpace=wrap;html=1;" vertex="1" parent="6yL_E_3D9y7odJ5T6iub-33">
          <mxGeometry y="30" width="140" height="30" as="geometry" />
        </mxCell>
        <mxCell id="6yL_E_3D9y7odJ5T6iub-35" value="rest" style="text;strokeColor=none;fillColor=none;align=left;verticalAlign=middle;spacingLeft=4;spacingRight=4;overflow=hidden;points=[[0,0.5],[1,0.5]];portConstraint=eastwest;rotatable=0;whiteSpace=wrap;html=1;" vertex="1" parent="6yL_E_3D9y7odJ5T6iub-33">
          <mxGeometry y="60" width="140" height="30" as="geometry" />
        </mxCell>
        <mxCell id="6yL_E_3D9y7odJ5T6iub-39" style="edgeStyle=orthogonalEdgeStyle;rounded=0;orthogonalLoop=1;jettySize=auto;html=1;exitX=0;exitY=0.5;exitDx=0;exitDy=0;entryX=1;entryY=0.25;entryDx=0;entryDy=0;jumpStyle=arc;" edge="1" parent="1" source="6yL_E_3D9y7odJ5T6iub-34" target="6yL_E_3D9y7odJ5T6iub-1">
          <mxGeometry relative="1" as="geometry" />
        </mxCell>
        <mxCell id="6yL_E_3D9y7odJ5T6iub-40" style="edgeStyle=orthogonalEdgeStyle;rounded=0;orthogonalLoop=1;jettySize=auto;html=1;exitX=1;exitY=0.5;exitDx=0;exitDy=0;entryX=1;entryY=0.25;entryDx=0;entryDy=0;jumpStyle=arc;" edge="1" parent="1" source="6yL_E_3D9y7odJ5T6iub-35" target="6yL_E_3D9y7odJ5T6iub-25">
          <mxGeometry relative="1" as="geometry" />
        </mxCell>
        <mxCell id="6yL_E_3D9y7odJ5T6iub-41" style="edgeStyle=orthogonalEdgeStyle;rounded=0;orthogonalLoop=1;jettySize=auto;html=1;exitX=1;exitY=0.5;exitDx=0;exitDy=0;jumpStyle=arc;" edge="1" parent="1" source="6yL_E_3D9y7odJ5T6iub-23" target="6yL_E_3D9y7odJ5T6iub-25">
          <mxGeometry relative="1" as="geometry" />
        </mxCell>
      </root>
    </mxGraphModel>
  </diagram>
</mxfile>
